<svg xmlns="http://www.w3.org/2000/svg" version="1.1" xmlns:xlink="http://www.w3.org/1999/xlink" xmlns:svgjs="http://svgjs.dev/svgjs" width="1980" height="1080" preserveAspectRatio="none" viewBox="0 0 1980 1080"><g mask="url(&quot;#SvgjsMask11506&quot;)" fill="none"><rect width="1980" height="1080" x="0" y="0" fill="url(&quot;#SvgjsRadialGradient11507&quot;)"></rect><g transform="translate(0, 0)" stroke-linecap="round" stroke="url(&quot;#SvgjsLinearGradient11508&quot;)"><path d="M398.5 230.475 L398.5 659.475" stroke-width="9.75"></path><path d="M398.5 674.1 L398.5 703.35" stroke-width="9.75"></path><path d="M398.5 717.975 L398.5 849.525" stroke-width="9.75"></path><path d="M411.5 281.025 L411.5 632.025" stroke-width="9.75"></path><path d="M411.5 646.65 L411.5 798.975" stroke-width="9.75"></path><path d="M424.5 405.495 L424.5 512.745" stroke-width="9.75"></path><path d="M424.5 527.37 L424.5 674.505" stroke-width="9.75"></path><path d="M437.5 238.655 L437.5 841.345" stroke-width="9.75"></path><path d="M450.5 340.345 L450.5 739.655" stroke-width="9.75"></path><path d="M463.5 347.495 L463.5 639.995" stroke-width="9.75"></path><path d="M463.5 654.62 L463.5 732.505" stroke-width="9.75"></path><path d="M476.5 366.305 L476.5 600.3050000000001" stroke-width="9.75"></path><path d="M476.5 614.9300000000001 L476.5 634.4300000000001" stroke-width="9.75"></path><path d="M476.5 649.0550000000001 L476.5 713.695" stroke-width="9.75"></path><path d="M489.5 256.135 L489.5 626.635" stroke-width="9.75"></path><path d="M489.5 641.26 L489.5 719.26" stroke-width="9.75"></path><path d="M489.5 733.885 L489.5 823.865" stroke-width="9.75"></path><path d="M502.5 349.735 L502.5 730.265" stroke-width="9.75"></path><path d="M515.5 318.225 L515.5 669.225" stroke-width="9.75"></path><path d="M515.5 683.85 L515.5 693.6" stroke-width="9.75"></path><path d="M515.5 708.225 L515.5 761.775" stroke-width="9.75"></path><path d="M528.5 275.365 L528.5 333.865" stroke-width="9.75"></path><path d="M528.5 348.49 L528.5 738.49" stroke-width="9.75"></path><path d="M528.5 753.115 L528.5 804.635" stroke-width="9.75"></path><path d="M541.5 444.255 L541.5 454.005" stroke-width="9.75"></path><path d="M541.5 468.63 L541.5 566.13" stroke-width="9.75"></path><path d="M541.5 580.755 L541.5 635.745" stroke-width="9.75"></path><path d="M554.5 250.765 L554.5 416.515" stroke-width="9.75"></path><path d="M554.5 431.14 L554.5 587.14" stroke-width="9.75"></path><path d="M554.5 601.765 L554.5 829.235" stroke-width="9.75"></path><path d="M567.5 236.935 L567.5 509.935" stroke-width="9.75"></path><path d="M567.5 524.56 L567.5 843.065" stroke-width="9.75"></path><path d="M580.5 284.165 L580.5 498.665" stroke-width="9.75"></path><path d="M580.5 513.29 L580.5 679.04" stroke-width="9.75"></path><path d="M580.5 693.665 L580.5 795.835" stroke-width="9.75"></path><path d="M593.5 363.645 L593.5 470.895" stroke-width="9.75"></path><path d="M593.5 485.52 L593.5 661.02" stroke-width="9.75"></path><path d="M593.5 675.645 L593.5 716.355" stroke-width="9.75"></path><path d="M606.5 220.055 L606.5 859.945" stroke-width="9.75"></path><path d="M619.5 352.935 L619.5 479.685" stroke-width="9.75"></path><path d="M619.5 494.31 L619.5 650.31" stroke-width="9.75"></path><path d="M619.5 664.935 L619.5 727.065" stroke-width="9.75"></path><path d="M632.5 351.125 L632.5 448.625" stroke-width="9.75"></path><path d="M632.5 463.25 L632.5 668" stroke-width="9.75"></path><path d="M632.5 682.625 L632.5 728.875" stroke-width="9.75"></path><path d="M645.5 422.775 L645.5 452.025" stroke-width="9.75"></path><path d="M645.5 466.65 L645.5 657.225" stroke-width="9.75"></path><path d="M658.5 404.745 L658.5 589.995" stroke-width="9.75"></path><path d="M658.5 604.62 L658.5 614.37" stroke-width="9.75"></path><path d="M658.5 628.995 L658.5 675.255" stroke-width="9.75"></path><path d="M671.5 261.845 L671.5 486.095" stroke-width="9.75"></path><path d="M671.5 500.72 L671.5 818.155" stroke-width="9.75"></path><path d="M684.5 294.125 L684.5 645.125" stroke-width="9.75"></path><path d="M684.5 659.75 L684.5 728" stroke-width="9.75"></path><path d="M684.5 742.625 L684.5 785.875" stroke-width="9.75"></path><path d="M697.5 424.165 L697.5 472.915" stroke-width="9.75"></path><path d="M697.5 487.54 L697.5 565.54" stroke-width="9.75"></path><path d="M697.5 580.165 L697.5 655.835" stroke-width="9.75"></path><path d="M710.5 391.475 L710.5 537.725" stroke-width="9.75"></path><path d="M710.5 552.35 L710.5 591.35" stroke-width="9.75"></path><path d="M710.5 605.975 L710.5 688.525" stroke-width="9.75"></path><path d="M723.5 341.375 L723.5 594.875" stroke-width="9.75"></path><path d="M723.5 609.5 L723.5 658.25" stroke-width="9.75"></path><path d="M723.5 672.875 L723.5 738.625" stroke-width="9.75"></path><path d="M736.5 279.495 L736.5 328.245" stroke-width="9.75"></path><path d="M736.5 342.87 L736.5 800.505" stroke-width="9.75"></path><path d="M749.5 304.025 L749.5 323.525" stroke-width="9.75"></path><path d="M749.5 338.15 L749.5 775.975" stroke-width="9.75"></path><path d="M762.5 253.915 L762.5 826.085" stroke-width="9.75"></path><path d="M775.5 421.735 L775.5 450.985" stroke-width="9.75"></path><path d="M775.5 465.61 L775.5 658.265" stroke-width="9.75"></path><path d="M788.5 347.775 L788.5 513.525" stroke-width="9.75"></path><path d="M788.5 528.15 L788.5 596.4" stroke-width="9.75"></path><path d="M788.5 611.025 L788.5 732.225" stroke-width="9.75"></path><path d="M801.5 508.905 L801.5 538.155" stroke-width="9.75"></path><path d="M801.5 552.78 L801.5 571.095" stroke-width="9.75"></path><path d="M814.5 501.875 L814.5 578.125" stroke-width="9.75"></path><path d="M827.5 456.915 L827.5 623.085" stroke-width="9.75"></path><path d="M840.5 328.335 L840.5 572.085" stroke-width="9.75"></path><path d="M840.5 586.71 L840.5 751.665" stroke-width="9.75"></path><path d="M853.5 337.375 L853.5 742.625" stroke-width="9.75"></path><path d="M866.5 426.385 L866.5 553.135" stroke-width="9.75"></path><path d="M866.5 567.76 L866.5 587.26" stroke-width="9.75"></path><path d="M866.5 601.885 L866.5 653.615" stroke-width="9.75"></path><path d="M879.5 476.855 L879.5 496.355" stroke-width="9.75"></path><path d="M879.5 510.98 L879.5 540.23" stroke-width="9.75"></path><path d="M879.5 554.855 L879.5 603.145" stroke-width="9.75"></path><path d="M892.5 365.335 L892.5 638.335" stroke-width="9.75"></path><path d="M892.5 652.96 L892.5 672.46" stroke-width="9.75"></path><path d="M892.5 687.085 L892.5 714.665" stroke-width="9.75"></path><path d="M905.5 231.375 L905.5 504.375" stroke-width="9.75"></path><path d="M905.5 519 L905.5 782.25" stroke-width="9.75"></path><path d="M905.5 796.875 L905.5 848.625" stroke-width="9.75"></path><path d="M918.5 456.885 L918.5 554.385" stroke-width="9.75"></path><path d="M918.5 569.01 L918.5 588.51" stroke-width="9.75"></path><path d="M918.5 603.135 L918.5 623.115" stroke-width="9.75"></path><path d="M931.5 418.215 L931.5 564.4649999999999" stroke-width="9.75"></path><path d="M931.5 579.0899999999999 L931.5 661.785" stroke-width="9.75"></path><path d="M944.5 244.845 L944.5 566.595" stroke-width="9.75"></path><path d="M944.5 581.22 L944.5 835.155" stroke-width="9.75"></path><path d="M957.5 370.085 L957.5 565.085" stroke-width="9.75"></path><path d="M957.5 579.71 L957.5 709.915" stroke-width="9.75"></path><path d="M970.5 226.505 L970.5 402.005" stroke-width="9.75"></path><path d="M970.5 416.63 L970.5 853.495" stroke-width="9.75"></path><path d="M983.5 447.895 L983.5 632.105" stroke-width="9.75"></path><path d="M996.5 469.815 L996.5 547.815" stroke-width="9.75"></path><path d="M996.5 562.44 L996.5 572.19" stroke-width="9.75"></path><path d="M996.5 586.815 L996.5 610.185" stroke-width="9.75"></path><path d="M1009.5 369.895 L1009.5 642.895" stroke-width="9.75"></path><path d="M1009.5 657.52 L1009.5 667.27" stroke-width="9.75"></path><path d="M1009.5 681.895 L1009.5 710.105" stroke-width="9.75"></path><path d="M1022.5 222.495 L1022.5 739.245" stroke-width="9.75"></path><path d="M1022.5 753.87 L1022.5 857.505" stroke-width="9.75"></path><path d="M1035.5 408.125 L1035.5 593.375" stroke-width="9.75"></path><path d="M1035.5 608 L1035.5 671.875" stroke-width="9.75"></path><path d="M1048.5 510.895 L1048.5 569.105" stroke-width="9.75"></path><path d="M1061.5 470.275 L1061.5 499.525" stroke-width="9.75"></path><path d="M1061.5 514.15 L1061.5 609.725" stroke-width="9.75"></path><path d="M1074.5 493.755 L1074.5 542.505" stroke-width="9.75"></path><path d="M1074.5 557.13 L1074.5 586.245" stroke-width="9.75"></path><path d="M1087.5 256.70500000000004 L1087.5 334.70500000000004" stroke-width="9.75"></path><path d="M1087.5 349.33000000000004 L1087.5 823.285" stroke-width="9.75"></path><path d="M1100.5 276.425 L1100.5 803.575" stroke-width="9.75"></path><path d="M1113.5 340.915 L1113.5 506.665" stroke-width="9.75"></path><path d="M1113.5 521.29 L1113.5 739.085" stroke-width="9.75"></path><path d="M1126.5 369.015 L1126.5 534.765" stroke-width="9.75"></path><path d="M1126.5 549.39 L1126.5 588.39" stroke-width="9.75"></path><path d="M1126.5 603.015 L1126.5 710.985" stroke-width="9.75"></path><path d="M1139.5 230.375 L1139.5 376.625" stroke-width="9.75"></path><path d="M1139.5 391.25 L1139.5 849.625" stroke-width="9.75"></path><path d="M1152.5 224.395 L1152.5 273.145" stroke-width="9.75"></path><path d="M1152.5 287.77 L1152.5 746.02" stroke-width="9.75"></path><path d="M1152.5 760.645 L1152.5 855.605" stroke-width="9.75"></path><path d="M1165.5 422.635 L1165.5 451.885" stroke-width="9.75"></path><path d="M1165.5 466.51 L1165.5 657.365" stroke-width="9.75"></path><path d="M1178.5 432.105 L1178.5 510.105" stroke-width="9.75"></path><path d="M1178.5 524.73 L1178.5 602.73" stroke-width="9.75"></path><path d="M1178.5 617.355 L1178.5 647.895" stroke-width="9.75"></path><path d="M1191.5 306.525 L1191.5 326.025" stroke-width="9.75"></path><path d="M1191.5 340.65 L1191.5 603.9" stroke-width="9.75"></path><path d="M1191.5 618.525 L1191.5 773.475" stroke-width="9.75"></path><path d="M1204.5 343.115 L1204.5 606.365" stroke-width="9.75"></path><path d="M1204.5 620.99 L1204.5 640.49" stroke-width="9.75"></path><path d="M1204.5 655.115 L1204.5 736.885" stroke-width="9.75"></path><path d="M1217.5 453.155 L1217.5 492.155" stroke-width="9.75"></path><path d="M1217.5 506.78 L1217.5 526.28" stroke-width="9.75"></path><path d="M1217.5 540.905 L1217.5 626.845" stroke-width="9.75"></path><path d="M1230.5 402.965 L1230.5 432.215" stroke-width="9.75"></path><path d="M1230.5 446.84 L1230.5 602.8399999999999" stroke-width="9.75"></path><path d="M1230.5 617.4649999999999 L1230.5 677.035" stroke-width="9.75"></path><path d="M1243.5 468.715 L1243.5 546.7149999999999" stroke-width="9.75"></path><path d="M1243.5 561.3399999999999 L1243.5 611.285" stroke-width="9.75"></path><path d="M1256.5 432.475 L1256.5 549.475" stroke-width="9.75"></path><path d="M1256.5 564.1 L1256.5 573.85" stroke-width="9.75"></path><path d="M1256.5 588.475 L1256.5 647.525" stroke-width="9.75"></path><path d="M1269.5 238.105 L1269.5 345.355" stroke-width="9.75"></path><path d="M1269.5 359.98 L1269.5 841.895" stroke-width="9.75"></path><path d="M1282.5 473.135 L1282.5 482.885" stroke-width="9.75"></path><path d="M1282.5 497.51 L1282.5 536.51" stroke-width="9.75"></path><path d="M1282.5 551.135 L1282.5 606.865" stroke-width="9.75"></path><path d="M1295.5 493.695 L1295.5 513.1949999999999" stroke-width="9.75"></path><path d="M1295.5 527.8199999999999 L1295.5 537.5699999999999" stroke-width="9.75"></path><path d="M1295.5 552.1949999999999 L1295.5 586.305" stroke-width="9.75"></path><path d="M1308.5 477.275 L1308.5 487.025" stroke-width="9.75"></path><path d="M1308.5 501.65 L1308.5 569.9" stroke-width="9.75"></path><path d="M1308.5 584.525 L1308.5 602.725" stroke-width="9.75"></path><path d="M1321.5 444.685 L1321.5 493.435" stroke-width="9.75"></path><path d="M1321.5 508.06 L1321.5 537.31" stroke-width="9.75"></path><path d="M1321.5 551.935 L1321.5 635.315" stroke-width="9.75"></path><path d="M1334.5 284.875 L1334.5 440.875" stroke-width="9.75"></path><path d="M1334.5 455.5 L1334.5 660.25" stroke-width="9.75"></path><path d="M1334.5 674.875 L1334.5 795.125" stroke-width="9.75"></path><path d="M1347.5 303.485 L1347.5 469.235" stroke-width="9.75"></path><path d="M1347.5 483.86 L1347.5 717.86" stroke-width="9.75"></path><path d="M1347.5 732.485 L1347.5 776.515" stroke-width="9.75"></path><path d="M1360.5 243.165 L1360.5 836.835" stroke-width="9.75"></path><path d="M1373.5 453.605 L1373.5 560.855" stroke-width="9.75"></path><path d="M1373.5 575.48 L1373.5 585.23" stroke-width="9.75"></path><path d="M1373.5 599.855 L1373.5 626.395" stroke-width="9.75"></path><path d="M1386.5 417.015 L1386.5 592.515" stroke-width="9.75"></path><path d="M1386.5 607.14 L1386.5 626.64" stroke-width="9.75"></path><path d="M1386.5 641.265 L1386.5 662.985" stroke-width="9.75"></path><path d="M1399.5 319.125 L1399.5 670.125" stroke-width="9.75"></path><path d="M1399.5 684.75 L1399.5 723.75" stroke-width="9.75"></path><path d="M1399.5 738.375 L1399.5 760.875" stroke-width="9.75"></path><path d="M1412.5 364.445 L1412.5 461.945" stroke-width="9.75"></path><path d="M1412.5 476.57 L1412.5 715.555" stroke-width="9.75"></path><path d="M1425.5 387.715 L1425.5 631.4649999999999" stroke-width="9.75"></path><path d="M1425.5 646.0899999999999 L1425.5 655.8399999999999" stroke-width="9.75"></path><path d="M1425.5 670.4649999999999 L1425.5 692.285" stroke-width="9.75"></path><path d="M1438.5 502.745 L1438.5 512.495" stroke-width="9.75"></path><path d="M1438.5 527.12 L1438.5 536.87" stroke-width="9.75"></path><path d="M1438.5 551.495 L1438.5 577.255" stroke-width="9.75"></path><path d="M1451.5 234.585 L1451.5 263.83500000000004" stroke-width="9.75"></path><path d="M1451.5 278.46000000000004 L1451.5 317.46000000000004" stroke-width="9.75"></path><path d="M1451.5 332.08500000000004 L1451.5 845.415" stroke-width="9.75"></path><path d="M1464.5 388.595 L1464.5 603.095" stroke-width="9.75"></path><path d="M1464.5 617.72 L1464.5 646.97" stroke-width="9.75"></path><path d="M1464.5 661.595 L1464.5 691.405" stroke-width="9.75"></path><path d="M1477.5 381.715 L1477.5 420.715" stroke-width="9.75"></path><path d="M1477.5 435.34 L1477.5 698.285" stroke-width="9.75"></path><path d="M1490.5 228.715 L1490.5 394.46500000000003" stroke-width="9.75"></path><path d="M1490.5 409.09000000000003 L1490.5 851.285" stroke-width="9.75"></path><path d="M1503.5 295.635 L1503.5 471.135" stroke-width="9.75"></path><path d="M1503.5 485.76 L1503.5 719.76" stroke-width="9.75"></path><path d="M1503.5 734.385 L1503.5 784.365" stroke-width="9.75"></path><path d="M1516.5 219.885 L1516.5 678.135" stroke-width="9.75"></path><path d="M1516.5 692.76 L1516.5 809.76" stroke-width="9.75"></path><path d="M1516.5 824.385 L1516.5 860.115" stroke-width="9.75"></path><path d="M1529.5 435.575 L1529.5 644.415" stroke-width="9.75"></path><path d="M1542.5 325.865 L1542.5 355.115" stroke-width="9.75"></path><path d="M1542.5 369.74 L1542.5 603.74" stroke-width="9.75"></path><path d="M1542.5 618.365 L1542.5 754.135" stroke-width="9.75"></path><path d="M1555.5 294.775 L1555.5 723.775" stroke-width="9.75"></path><path d="M1555.5 738.4 L1555.5 785.225" stroke-width="9.75"></path><path d="M1568.5 434.835 L1568.5 503.085" stroke-width="9.75"></path><path d="M1568.5 517.71 L1568.5 546.96" stroke-width="9.75"></path><path d="M1568.5 561.585 L1568.5 645.165" stroke-width="9.75"></path><path d="M1581.5 372.505 L1581.5 655.255" stroke-width="9.75"></path><path d="M1581.5 669.88 L1581.5 707.495" stroke-width="9.75"></path></g></g><defs><mask id="SvgjsMask11506"><rect width="1980" height="1080" fill="#ffffff"></rect></mask><radialGradient cx="50%" cy="50%" r="1127.7" gradientUnits="userSpaceOnUse" id="SvgjsRadialGradient11507"><stop stop-color="rgba(255, 255, 255, 0.998)" offset="0"></stop><stop stop-color="rgba(193, 193, 193, 1)" offset="0.99"></stop></radialGradient><linearGradient x1="523.3060800000001" y1="1006.6280399999999" x2="1456.6939200000002" y2="73.37196000000003" gradientUnits="userSpaceOnUse" id="SvgjsLinearGradient11508"><stop stop-color="#3a7cc3" offset="0"></stop><stop stop-color="rgba(192, 192, 192, 0)" offset="1"></stop></linearGradient></defs></svg>